<svg xmlns="http://www.w3.org/2000/svg" fill="none" version="1.1" width="215.10400390625" height="102" viewBox="0 0 215.10400390625 102"><g><path d="M43.392002,35.295998Q45.312,35.295998,46.816002,37.951996Q48.320004,40.607998,48.320004,43.967999Q48.320004,47.327999,47.136002,52.703999Q45.952003,58.080002,43.968002,62.560001Q41.984001,67.040001,40.064003,67.040001Q38.720001,67.040001,38.720001,65.279999Q38.720001,63.52,40.928001,56.639999Q43.136002,49.759998,43.136002,45.695999Q43.136002,41.631996,41.856003,41.631996Q40.256001,41.631996,38.176003,44.447998Q36.096001,47.264,33.728001,51.231998Q31.360001,55.200001,31.168001,55.487999Q30.976002,55.776001,30.688002,56.287998Q30.400002,56.799999,30.048002,57.375999Q29.696001,57.952,28.256001,60.832001Q26.816002,63.711998,25.728001,65.344002Q24.640001,66.975998,23.840002,66.975998Q23.040001,66.975998,22.080002,65.952003Q21.120001,64.928001,21.120001,64.031998Q21.120001,63.136002,22.272001,60.32Q25.6,52,25.6,44.832001Q25.6,43.487999,25.024002,42.559998Q24.448002,41.631996,23.744001,41.631996Q23.040001,41.631996,22.272001,42.239998Q21.504002,42.848,20.352001,44.416Q19.200001,45.984001,18.304001,47.391998Q17.408001,48.799999,15.584001,51.776001Q13.76,54.751999,12.832001,56.192001Q11.904,57.632,10.688001,59.52Q9.4720001,61.408001,8.8000002,62.431999Q8.1280003,63.456001,7.2960005,64.671997Q5.5680003,67.040001,4.7680001,67.040001Q3.9680002,67.040001,2.6880002,65.599998Q1.4080001,64.160004,1.4080001,63.424Q1.4080001,62.688,1.664,61.599998Q1.9200001,60.512001,2.2080002,59.487999Q2.4960001,58.464001,3.1040001,56.447998Q3.7120001,54.431999,4.5120001,51.711998Q5.3120003,48.991997,5.7280002,44.223999Q6.1440001,39.456001,6.3360004,37.248001Q6.5280004,35.039997,7.4240003,35.039997Q8.8320007,35.039997,10.208,36.512001Q11.584001,37.984001,11.584001,39.456001Q11.584001,45.087997,7.3600001,58.015999Q14.528001,44.575996,16.384001,42.079998Q18.240002,39.584,19.584002,38.047997Q22.080002,35.295998,24.640001,35.295998Q26.176001,35.295998,28.320002,37.951996Q30.464001,40.607998,30.464001,43.295998Q30.464001,45.984001,29.696001,49.952Q37.248001,35.295998,43.392002,35.295998ZM61.120003,26.207996Q61.120003,24.927998,62.144005,23.775997Q63.168007,22.623997,64.224007,22.623997Q65.280006,22.623997,66.752007,25.216Q68.224007,27.807999,68.224007,29.535999Q68.224007,30.175999,67.648003,30.688Q67.072006,31.199997,66.432007,31.199997Q64.896004,31.199997,63.008003,29.343998Q61.120003,27.487999,61.120003,26.207996ZM60.800003,35.295998Q62.016006,35.295998,63.104004,36.767998Q64.192001,38.239998,64.192001,39.647999Q64.192001,41.056,62.336006,48.063999Q60.480003,55.071999,57.664005,63.776001Q56.576004,66.975998,54.912003,66.975998Q54.016003,66.975998,53.376003,66.239998Q52.736004,65.503998,52.736004,64.575996Q52.736004,63.647999,53.216003,61.632Q53.696003,59.615997,54.624004,56.256001Q55.552006,52.896,56.096004,50.783997Q56.640003,48.671997,57.216003,46.015999Q57.792004,43.360001,58.144005,41.727997Q58.496006,40.096001,58.944004,38.431999Q59.840004,35.295998,60.800003,35.295998ZM80.768005,22.751999Q80.768005,34.783997,75.776001,53.984001Q72.576004,67.040001,71.296005,67.040001Q70.400002,67.040001,69.216003,65.632004Q68.032005,64.223999,68.032005,63.456001Q68.032005,62.688,69.888,55.52Q71.744003,48.351997,73.600006,37.888Q75.456001,27.424,75.456001,19.039997Q75.456001,18.143997,75.712006,17.759998Q75.968002,17.375999,76.800003,17.375999Q77.632004,17.375999,79.200005,19.199997Q80.768005,21.023998,80.768005,22.751999ZM100.86401,35.295998Q103.744,35.295998,106.176,38.208Q108.608,41.119999,108.608,43.456001Q108.608,45.792,107.008,48.223999Q107.776,49.183998,107.776,49.888Q107.776,51.68,106.97601,56.031998Q106.176,60.383999,106.01601,61.728001Q105.856,63.071999,105.728,63.872002Q105.60001,64.671997,105.408,65.440002Q105.15201,67.040001,104.256,67.040001Q103.104,67.040001,102.368,65.024002Q101.632,63.007999,101.50401,59.807999Q95.808006,67.040001,90.944,67.040001Q88,67.040001,85.152,64.512001Q82.304001,61.984001,82.304001,59.295998Q82.304001,55.456001,85.120003,49.792Q87.936005,44.127998,92.416,39.711998Q96.896004,35.295998,100.86401,35.295998ZM103.80801,46.559998Q103.80801,40.607998,101.44,40.607998Q98.944,40.607998,95.616005,44.159996Q92.288002,47.711998,89.984001,52.192001Q87.68,56.672001,87.68,59.295998Q87.68,60.383999,88.576004,61.056Q89.472,61.728001,90.688004,61.728001Q93.695999,61.728001,97.472,57.664001Q101.248,53.599998,102.72,47.776001Q102.912,46.815998,103.80801,46.624001L103.80801,46.559998Z" fill="#000000"/></g><g><path d="M147.328001,49.759998Q147.328001,52.32,145.088001,55.584Q143.360001,59.487999,141.376001,66.816002Q139.392,74.143997,138.048,77.279999Q135.360001,83.807999,129.7920008,83.807999Q125.2480001,83.807999,122.1440001,81.344002Q119.03999996,78.879997,119.03999996,76.447998Q119.03999996,75.424004,119.64799997,74.400002Q120.25600001,73.375999,120.92800003,73.375999Q121.6,73.375999,122.4320002,74.335999Q123.2640002,75.295998,124,76.416Q124.7360001,77.536003,126.2400002,78.496002Q127.7440004,79.456001,129.1520004,79.456001Q130.56,79.456001,131.264001,79.040001Q131.968,78.624001,132.608001,77.695999Q133.248001,76.767998,133.696001,75.839996Q134.144001,74.912003,134.68800099999999,73.216003Q135.232,71.519997,135.552001,70.304001Q135.872001,69.087997,136.448,66.879997Q137.024,64.671997,137.408001,63.327999Q132.416,67.040001,129.2800007,67.040001Q126.1440001,67.040001,123.8400002,64.512001Q121.536,61.984001,121.536,58.624001Q121.536,55.264,124.0640001,49.695999Q126.5920005,44.127998,130.88,39.711998Q135.168001,35.295998,139.264002,35.295998Q141.888,35.295998,143.68,37.279999Q146.624001,40.543999,146.624001,46.559998Q146.624001,47.327999,146.560001,47.647999Q147.328001,48.736,147.328001,49.759998ZM126.7200003,59.295998Q126.7200003,60.383999,127.4240003,61.056Q128.1280003,61.728001,129.2160006,61.728001Q132.416,61.728001,136.768002,57.919998Q141.120001,54.112,142.912001,49.056Q142.656,48.223999,142.464001,46.495998Q142.272001,44.767998,142.080002,43.743999Q141.888,42.720001,141.248001,41.664001Q140.608002,40.607998,139.584002,40.607998Q137.088001,40.607998,133.952001,44.192001Q130.816001,47.776001,128.7680006,52.192001Q126.7200003,56.608002,126.7200003,59.295998ZM160.576004,26.207996Q160.576004,24.927998,161.60000200000002,23.775997Q162.624001,22.623997,163.68,22.623997Q164.736,22.623997,166.208,25.216Q167.68,27.807999,167.68,29.535999Q167.68,30.175999,167.104004,30.688Q166.528,31.199997,165.888,31.199997Q164.352001,31.199997,162.464001,29.343998Q160.576004,27.487999,160.576004,26.207996ZM160.256004,35.295998Q161.472,35.295998,162.560001,36.767998Q163.64800300000002,38.239998,163.64800300000002,39.647999Q163.64800300000002,41.056,161.792,48.063999Q159.936001,55.071999,157.120003,63.776001Q156.032001,66.975998,154.368,66.975998Q153.472,66.975998,152.832001,66.239998Q152.192001,65.503998,152.192001,64.575996Q152.192001,63.647999,152.672001,61.632Q153.152,59.615997,154.080002,56.256001Q155.008003,52.896,155.55200200000002,50.783997Q156.096001,48.671997,156.672001,46.015999Q157.248001,43.360001,157.60000200000002,41.727997Q157.952003,40.096001,158.400002,38.431999Q159.296001,35.295998,160.256004,35.295998ZM172.224003,67.167999Q171.392006,67.167999,170.432003,65.952003Q169.472004,64.736,169.472004,63.967999Q169.472004,63.200001,170.11200300000002,60.959999Q173.312004,49.439999,174.464005,44.512001Q171.712006,45.152,170.688004,45.152Q169.664005,45.152,168.640003,44.255997Q167.616005,43.360001,167.616005,42.271999Q167.616005,41.183998,170.496002,40.351997Q174.20800400000002,39.456001,175.616005,39.199997Q176.256004,36.127998,176.576004,34.463997Q178.11200300000002,25.631996,180.736004,21.727997Q183.360004,17.823997,187.840004,17.823997Q191.040009,17.823997,193.088005,20.351997Q195.13600200000002,22.879997,195.13600200000002,26.303997Q195.13600200000002,29.727997,193.344009,29.727997Q191.808006,29.727997,190.848007,26.271999Q190.528008,24.991997,189.760002,23.903999Q188.992004,22.815998,187.90400699999998,22.815998Q186.81601,22.815998,185.920006,23.807999Q185.024002,24.799999,184.320007,26.655998Q182.464005,31.84,181.760002,36.127998L181.248005,38.367996Q183.616005,38.047997,185.952003,38.047997Q188.288002,38.047997,189.344009,38.559998Q190.400009,39.071999,190.400009,39.839996Q190.400009,41.056,188.288002,41.695999Q186.17600299999998,42.335999,180.032005,43.360001Q175.488007,61.792,173.824005,65.311996Q172.92800499999998,67.167999,172.224003,67.167999ZM198.848007,60.639999Q198.848007,61.855999,200.25600400000002,61.855999Q202.688004,61.855999,206.17601000000002,60.48Q209.664009,59.104,210.048004,59.104Q211.20001200000002,59.104,211.20001200000002,60.32Q211.20001200000002,62.175999,207.39200599999998,64.608002Q203.58400699999999,67.040001,200.480011,67.040001Q197.37600700000002,67.040001,195.328011,65.344002Q193.28000600000001,63.647999,193.28000600000001,61.855999Q193.28000600000001,60.063999,194.048004,57.279999Q194.81601,54.495998,196.25600400000002,49.919998Q197.696007,45.344002,198.528008,42.335999Q195.520004,43.040001,194.49601,43.040001Q193.47200800000002,43.040001,192.480003,41.984001Q191.48800699999998,40.928001,191.48800699999998,39.967999Q191.48800699999998,38.431999,199.808006,37.023998Q200.96000700000002,31.711998,200.96000700000002,27.615997Q200.96000700000002,25.695999,202.240005,25.695999Q203.328011,25.695999,204.928009,27.071999Q206.528008,28.447998,206.528008,30.175999Q206.528008,31.903999,205.44001,36.255997Q209.088005,35.935997,211.264008,35.935997Q215.104004,35.935997,215.104004,37.599998Q215.104004,38.559998,213.02401,39.199997Q210.944008,39.839996,204.28800999999999,41.183998Q202.944008,46.239998,200.896011,52.736Q198.848007,59.231998,198.848007,60.639999Z" fill="#000000"/></g></svg>
